<svg id="cancel" xmlns="http://www.w3.org/2000/svg" width="500" height="500" viewBox="0 0 500 500">
  <g id="Group_2" data-name="Group 2" transform="translate(0)">
    <path id="Path_1" data-name="Path 1" d="M426.768,73.232A249.987,249.987,0,1,0,73.232,426.768,249.987,249.987,0,1,0,426.768,73.232Zm-20.1,333.439a221.506,221.506,0,0,1-313.342,0c-86.385-86.385-86.385-226.957,0-313.342a221.506,221.506,0,0,1,313.342,0C493.056,179.714,493.056,320.286,406.671,406.671Z" fill="#ef0000"/>
    <path id="Path_2" data-name="Path 2" d="M355.962,133.154a14.321,14.321,0,0,0-20.323,0l-91.081,91.081-91.081-91.081a14.37,14.37,0,0,0-20.323,20.323l91.081,91.081-91.081,91.081a14.418,14.418,0,0,0,10.108,24.579,14.016,14.016,0,0,0,10.108-4.256l91.081-91.081,91.081,91.081a14.457,14.457,0,0,0,10.108,4.256,13.842,13.842,0,0,0,10.108-4.256,14.321,14.321,0,0,0,0-20.323l-90.868-91.081,91.081-91.081A14.321,14.321,0,0,0,355.962,133.154Z" transform="translate(5.442 5.442)" fill="#ef0000"/>
  </g>
</svg>
