<svg xmlns="http://www.w3.org/2000/svg" width="500" height="500" viewBox="0 0 500 500">
  <path id="check-mark" d="M360.512,170.673a19.529,19.529,0,0,1,0,27.622L229.485,329.327a19.536,19.536,0,0,1-27.622,0l-62.374-62.378a19.529,19.529,0,1,1,27.618-27.618L215.672,287.9,332.89,170.673A19.536,19.536,0,0,1,360.512,170.673ZM500,250c0,138.187-111.832,250-250,250C111.813,500,0,388.168,0,250,0,111.813,111.832,0,250,0,388.187,0,500,111.832,500,250Zm-39.062,0A210.938,210.938,0,1,0,250,460.938,210.821,210.821,0,0,0,460.938,250Zm0,0" fill="#50ac0d"/>
</svg>
